<svg xmlns="http://www.w3.org/2000/svg" viewBox="0 0 96 96">
  <defs>
    <linearGradient id="head" x1="18" y1="16" x2="78" y2="86" gradientUnits="userSpaceOnUse">
      <stop stop-color="#24364f"/>
      <stop offset="1" stop-color="#0f1d31"/>
    </linearGradient>
    <linearGradient id="beakTop" x1="56" y1="38" x2="92" y2="50" gradientUnits="userSpaceOnUse">
      <stop stop-color="#e7edf5"/>
      <stop offset="1" stop-color="#9aa9ba"/>
    </linearGradient>
    <linearGradient id="beakBottom" x1="58" y1="54" x2="88" y2="68" gradientUnits="userSpaceOnUse">
      <stop stop-color="#f6a86f"/>
      <stop offset="1" stop-color="#d66a3f"/>
    </linearGradient>
  </defs>
  <path d="M13 76C19 38 34 14 55 15c18 1 30 17 27 36-3 22-20 35-39 32-11-2-20-4-30-7Z" fill="url(#head)"/>
  <path d="M21 77c13-9 19-20 23-33 4 17 13 28 26 34-16 13-34 12-49-1Z" fill="#fff"/>
  <path d="M55 42c13-6 25-10 38-6-8 9-18 15-35 15l-3-9Z" fill="url(#beakTop)"/>
  <path d="M56 52c11 2 21 6 31 15-12 4-24 1-31-8v-7Z" fill="url(#beakBottom)"/>
  <path d="M58 50c10 1 20 4 31 13" fill="none" stroke="#263348" stroke-width="3" stroke-linecap="round"/>
  <circle cx="52" cy="33" r="12" fill="#fff"/>
  <circle cx="56" cy="30" r="6" fill="#24364f"/>
  <circle cx="58" cy="27" r="2.4" fill="#fff"/>
  <circle cx="38" cy="47" r="7" fill="#f15f5f"/>
</svg>
